<svg width="24px" height="24px" viewBox="0 0 28 28" version="1.1" xmlns="http://www.w3.org/2000/svg" xmlns:xlink="http://www.w3.org/1999/xlink">
                                <g id="搜索" stroke="none" stroke-width="1" fill="none" fill-rule="evenodd">
                                    <g id="编组-17">
                                        <path d="M16,5 C20.418278,5 24,8.581722 24,13 C24,16.0803917 22.2590043,18.7541521 19.7073223,20.0909719 L23.0905984,23.3102362 C23.2506305,23.4625276 23.2569056,23.7157158 23.1046142,23.875748 C23.0291106,23.9550893 22.9243759,24 22.8148504,24 L20.6539141,24 C20.3972737,24 20.150457,23.9013297 19.9645442,23.7244095 L17.0320536,20.9340435 C16.6941842,20.9775607 16.3497126,21 16,21 L12,21 C7.581722,21 4,17.418278 4,13 C4,8.581722 7.581722,5 12,5 L16,5 Z M16,7 L12,7 C8.6862915,7 6,9.6862915 6,13 C6,16.3137085 8.6862915,19 12,19 L16,19 C19.3137085,19 22,16.3137085 22,13 C22,9.6862915 19.3137085,7 16,7 Z" id="形状结合" fill="#242933" fill-rule="nonzero"/>
                                    </g>
                                </g>
                            </svg>