<svg xmlns="http://www.w3.org/2000/svg" xmlns:xlink="http://www.w3.org/1999/xlink" width="20px" height="20px" viewBox="0 0 20 20" version="1.1">
    <!-- Generator: Sketch 60 (88103) - https://sketch.com -->
    <title>购物车</title>
    <desc>Created with Sketch.</desc>
    <g id="海外一期" stroke="none" stroke-width="1" fill="none" fill-rule="evenodd">
        <g id="E00-个人中心" transform="translate(-1824.000000, -198.000000)">
            <g id="购物车" transform="translate(1824.000000, 198.000000)">
                <rect id="矩形" x="0" y="0" width="20" height="20"/>
                <g id="编组-20" transform="translate(3.000000, 3.000000)" fill="#242933" fill-rule="nonzero">
                    <path d="M3.17465621,11.5 C3.72694096,11.5 4.17465621,11.9477153 4.17465621,12.5 C4.17465621,13.0522847 3.72694096,13.5 3.17465621,13.5 C2.62237146,13.5 2.17465621,13.0522847 2.17465621,12.5 C2.17465621,11.9477153 2.62237146,11.5 3.17465621,11.5 Z M10.1746562,11.5 C10.726941,11.5 11.1746562,11.9477153 11.1746562,12.5 C11.1746562,13.0522847 10.726941,13.5 10.1746562,13.5 C9.62237146,13.5 9.17465621,13.0522847 9.17465621,12.5 C9.17465621,11.9477153 9.62237146,11.5 10.1746562,11.5 Z M15.6746562,0 L15.6746562,1 L14.6161747,1 C14.0166466,1 13.4795772,1.35623229 13.2424411,1.89753498 L13.1931497,2.02565835 L11.3327701,7.60679718 C10.8770839,8.97385565 9.63356034,9.91529407 8.20786398,9.99457405 L8.01237855,10 L4.43756045,10 C2.93999091,10 1.61630281,9.04860764 1.13075166,7.64687181 L1.07222663,7.46152395 L0.0581002758,3.91208169 C-0.169486158,3.11552917 0.291751986,2.28530051 1.08830451,2.05771408 C1.17764597,2.03218795 1.26906855,2.01504595 1.36138634,2.0064542 L1.5003862,2 L8.22457025,2 L8.22457025,3 L1.5003862,3 C1.45392793,3 1.40769637,3.00647496 1.36302563,3.01923803 C1.12701007,3.08667104 0.979307762,3.31282465 1.00267921,3.54872993 L1.01962422,3.63736056 L2.03375058,7.18680282 C2.3242554,8.20356967 3.219968,8.92118793 4.26252064,8.99391017 L4.43756045,9 L8.01237855,9 C9.02867257,9 9.93727938,8.38580789 10.3217624,7.45757421 L10.3840868,7.29056942 L12.2444664,1.70943058 C12.5658468,0.745289423 13.4358473,0.0775339156 14.4380313,0.00631460351 L14.6161747,0 L15.6746562,0 Z" id="形状结合"/>
                </g>
            </g>
        </g>
    </g>
</svg>