<svg xmlns="http://www.w3.org/2000/svg" xmlns:xlink="http://www.w3.org/1999/xlink" width="28px" height="28px" viewBox="0 0 28 28" version="1.1">
    <!-- Generator: Sketch 60 (88103) - https://sketch.com -->
    <title>个人中心_导航</title>
    <desc>Created with Sketch.</desc>
    <g id="海外一期" stroke="none" stroke-width="1" fill="none" fill-rule="evenodd">
        <g id="E00-个人中心" transform="translate(-1972.000000, -29.000000)">
            <g id="个人中心_导航" transform="translate(1972.000000, 29.000000)">
                <rect id="矩形备份-6" x="0" y="0" width="28" height="28"/>
                <g id="编组-18" transform="translate(3.000000, 5.000000)" fill="#242933" fill-rule="nonzero">
                    <g id="编组-2" transform="translate(0.000000, 12.000000)">
                        <path d="M5.77506174,0.00413847206 L6,0 L17,0 C20.2383969,0 22.8775718,2.56557489 22.9958615,5.77506174 L23,6 L23,6.5 C23,6.77614237 22.7761424,7 22.5,7 L21.5,7 C21.2238576,7 21,6.77614237 21,6.5 L21,6 C21,3.85780461 19.3160315,2.10892112 17.1996403,2.00489531 L17,2 L6,2 C3.85780461,2 2.10892112,3.68396847 2.00489531,5.80035966 L2,6 L2,6.5 C2,6.77614237 1.77614237,7 1.5,7 L0.5,7 C0.223857625,7 3.38176876e-17,6.77614237 0,6.5 L0,6 C0,2.76160306 2.56557489,0.122428238 5.77506174,0.00413847206 Z" id="形状结合"/>
                    </g>
                    <path d="M13.002,0 C15.7634237,0 18.002,2.23857625 18.002,5 C18.002,7.76142375 15.7634237,10 13.002,10 L10.002,10 C7.24057625,10 5.002,7.76142375 5.002,5 C5.002,2.23857625 7.24057625,0 10.002,0 L13.002,0 Z M13.002,2 L10.002,2 C8.34514575,2 7.002,3.34314575 7.002,5 C7.002,6.59768088 8.25091996,7.90366088 9.82572721,7.99490731 L10.002,8 L13.002,8 C14.6588542,8 16.002,6.65685425 16.002,5 C16.002,3.40231912 14.75308,2.09633912 13.1782728,2.00509269 L13.002,2 Z" id="矩形备份-23"/>
                </g>
            </g>
        </g>
    </g>
</svg>